<svg width="255" height="150" viewBox="0 0 255 150" fill="none" xmlns="http://www.w3.org/2000/svg">
<g clip-path="url(#clip0_37_571)">
<rect width="255" height="150" fill="white"/>
<line x1="169.875" y1="186" x2="169.875" y2="116" stroke="#E8E7D8" stroke-width="1.25"/>
<line x1="161.188" y1="130.959" x2="221.809" y2="95.9587" stroke="#E8E7D8" stroke-width="1.25"/>
<line x1="255.125" y1="186" x2="255.125" y2="116" stroke="#E8E7D8" stroke-width="1.25"/>
<line x1="264.309" y1="132.041" x2="203.688" y2="97.0413" stroke="#E8E7D8" stroke-width="1.25"/>
<line x1="84.625" y1="186" x2="84.625" y2="116" stroke="#E8E7D8" stroke-width="1.25"/>
<line x1="75.9375" y1="130.959" x2="136.559" y2="95.9587" stroke="#E8E7D8" stroke-width="1.25"/>
<line x1="169.875" y1="186" x2="169.875" y2="116" stroke="#E8E7D8" stroke-width="1.25"/>
<line x1="179.059" y1="132.041" x2="118.438" y2="97.0413" stroke="#E8E7D8" stroke-width="1.25"/>
<line x1="0.125" y1="186" x2="0.125" y2="116" stroke="#E8E7D8" stroke-width="1.25"/>
<line x1="-8.5625" y1="130.959" x2="52.0593" y2="95.9587" stroke="#E8E7D8" stroke-width="1.25"/>
<line x1="85.375" y1="186" x2="85.375" y2="116" stroke="#E8E7D8" stroke-width="1.25"/>
<line x1="94.5593" y1="132.041" x2="33.9375" y2="97.0413" stroke="#E8E7D8" stroke-width="1.25"/>
<line x1="127.125" y1="111.5" x2="127.125" y2="41.5" stroke="#E8E7D8" stroke-width="1.25"/>
<line x1="160.938" y1="130.959" x2="221.559" y2="95.9587" stroke="#E8E7D8" stroke-width="1.25"/>
<line x1="118.438" y1="56.4587" x2="179.059" y2="21.4587" stroke="#E8E7D8" stroke-width="1.25"/>
<line x1="212.375" y1="111.5" x2="212.375" y2="41.5" stroke="#E8E7D8" stroke-width="1.25"/>
<line x1="179.059" y1="132.041" x2="118.438" y2="97.0413" stroke="#E8E7D8" stroke-width="1.25"/>
<line x1="221.559" y1="57.5413" x2="160.938" y2="22.5413" stroke="#E8E7D8" stroke-width="1.25"/>
<line x1="42.125" y1="111.25" x2="42.125" y2="41.25" stroke="#E8E7D8" stroke-width="1.25"/>
<line x1="75.9375" y1="130.709" x2="136.559" y2="95.7087" stroke="#E8E7D8" stroke-width="1.25"/>
<line x1="33.4375" y1="56.2087" x2="94.0593" y2="21.2087" stroke="#E8E7D8" stroke-width="1.25"/>
<line x1="127.375" y1="111.25" x2="127.375" y2="41.25" stroke="#E8E7D8" stroke-width="1.25"/>
<line x1="94.0593" y1="131.791" x2="33.4375" y2="96.7913" stroke="#E8E7D8" stroke-width="1.25"/>
<line x1="136.559" y1="57.2913" x2="75.9375" y2="22.2913" stroke="#E8E7D8" stroke-width="1.25"/>
<line x1="-8.5625" y1="130.709" x2="52.0593" y2="95.7087" stroke="#E8E7D8" stroke-width="1.25"/>
<line x1="-51.0625" y1="56.2087" x2="9.55928" y2="21.2087" stroke="#E8E7D8" stroke-width="1.25"/>
<line x1="42.875" y1="111.25" x2="42.875" y2="41.25" stroke="#E8E7D8" stroke-width="1.25"/>
<line x1="9.55933" y1="131.791" x2="-51.0625" y2="96.7913" stroke="#E8E7D8" stroke-width="1.25"/>
<line x1="52.0593" y1="57.2913" x2="-8.56245" y2="22.2913" stroke="#E8E7D8" stroke-width="1.25"/>
<line x1="169.875" y1="36.75" x2="169.875" y2="-33.25" stroke="#E8E7D8" stroke-width="1.25"/>
<line x1="203.688" y1="56.2087" x2="264.309" y2="21.2087" stroke="#E8E7D8" stroke-width="1.25"/>
<line x1="255.125" y1="36.75" x2="255.125" y2="-33.25" stroke="#E8E7D8" stroke-width="1.25"/>
<line x1="221.809" y1="57.2913" x2="161.188" y2="22.2913" stroke="#E8E7D8" stroke-width="1.25"/>
<line x1="84.875" y1="36.75" x2="84.875" y2="-33.25" stroke="#E8E7D8" stroke-width="1.25"/>
<line x1="118.688" y1="56.2087" x2="179.309" y2="21.2087" stroke="#E8E7D8" stroke-width="1.25"/>
<line x1="170.125" y1="36.75" x2="170.125" y2="-33.25" stroke="#E8E7D8" stroke-width="1.25"/>
<line x1="136.809" y1="57.2913" x2="76.1875" y2="22.2913" stroke="#E8E7D8" stroke-width="1.25"/>
<line x1="0.375" y1="36.5" x2="0.375" y2="-33.5" stroke="#E8E7D8" stroke-width="1.25"/>
<line x1="34.1875" y1="55.9587" x2="94.8093" y2="20.9587" stroke="#E8E7D8" stroke-width="1.25"/>
<line x1="85.625" y1="36.5" x2="85.625" y2="-33.5" stroke="#E8E7D8" stroke-width="1.25"/>
<line x1="52.3093" y1="57.0413" x2="-8.31245" y2="22.0413" stroke="#E8E7D8" stroke-width="1.25"/>
<line x1="306.309" y1="57.5413" x2="245.688" y2="22.5413" stroke="#E8E7D8" stroke-width="1.25"/>
<line x1="245.688" y1="130.959" x2="306.309" y2="95.9587" stroke="#E8E7D8" stroke-width="1.25"/>
</g>
<defs>
<clipPath id="clip0_37_571">
<rect width="255" height="150" fill="white"/>
</clipPath>
</defs>
</svg>
